<svg width="10" height="19" viewBox="0 0 10 19" fill="none" xmlns="http://www.w3.org/2000/svg">
<g id="facebook" clip-path="url(#clip0_557_97)">
<g id="Clip path group">
<mask id="mask0_557_97" style="mask-type:luminance" maskUnits="userSpaceOnUse" x="0" y="0" width="10" height="19">
<g id="clip0_2395_1942">
<path id="Vector" d="M9.75 0H0V18.75H9.75V0Z" fill="white"/>
</g>
</mask>
<g mask="url(#mask0_557_97)">
<g id="Group">
<path id="Vector_2" d="M6.2588 3.46963C6.4594 3.23997 6.8606 3.08686 7.42229 3.08686C7.94385 3.08686 8.54565 3.16341 9.14745 3.31652L9.62895 0.790192C8.6259 0.445696 7.5828 0.369141 6.49952 0.369141C5.41627 0.369141 4.57374 0.522251 3.89169 0.905032C3.20964 1.24953 2.72819 1.67058 2.48747 2.28302C2.20663 2.81891 2.08627 3.6993 2.08627 4.84763V5.84285H0V8.6754H2.08627V17.7855C2.96892 17.9769 3.89169 18.0534 4.81446 18.0534C5.17555 18.0534 5.53663 18.0534 5.89771 17.9769V8.6754H8.66603V5.76629H5.89771V4.84763C5.89771 4.15863 6.01808 3.6993 6.2588 3.46963Z" fill="#242433"/>
</g>
</g>
</g>
</g>
<defs>
<clipPath id="clip0_557_97">
<rect width="9.75" height="18.75" fill="white"/>
</clipPath>
</defs>
</svg>
