<svg width="16" height="19" viewBox="0 0 16 19" fill="none" xmlns="http://www.w3.org/2000/svg">
<g id="apple" clip-path="url(#clip0_557_109)">
<g id="Clip path group">
<mask id="mask0_557_109" style="mask-type:luminance" maskUnits="userSpaceOnUse" x="0" y="0" width="16" height="19">
<g id="clip0_2395_1948">
<path id="Vector" d="M16 0H0.25V18.75H16V0Z" fill="white"/>
</g>
</mask>
<g mask="url(#mask0_557_109)">
<g id="Group">
<path id="Vector_2" fill-rule="evenodd" clip-rule="evenodd" d="M13.357 9.87607C13.357 8.4528 14.1707 7.11586 15.4364 6.38269C14.6228 5.30449 13.357 4.57131 11.9105 4.52818C10.4187 4.35567 9.01741 5.39074 8.24896 5.39074C7.48046 5.39074 6.30515 4.52818 5.03943 4.57131C3.41207 4.61444 1.87512 5.52013 1.10665 6.8571C-0.611112 9.70357 0.654607 13.887 2.28196 16.1728C3.09564 17.2941 4.04493 18.5448 5.31066 18.5017C6.53117 18.4585 6.98322 17.7685 8.47494 17.7685C9.96669 17.7685 10.3736 18.5017 11.6393 18.4586C12.9502 18.4586 13.7639 17.3372 14.5775 16.2159C15.1652 15.3965 15.6173 14.5339 15.9337 13.585C14.3515 12.9382 13.357 11.4718 13.357 9.87607Z" fill="#242433"/>
<path id="Vector_3" fill-rule="evenodd" clip-rule="evenodd" d="M10.9158 2.97584C11.5938 2.1564 12.0006 1.0782 11.9103 0C10.8253 0.129384 9.78559 0.603792 9.10759 1.42322C8.42952 2.24266 8.02264 3.27773 8.06787 4.26968C9.19797 4.3128 10.2377 3.8384 10.9158 2.97584Z" fill="#242433"/>
</g>
</g>
</g>
</g>
<defs>
<clipPath id="clip0_557_109">
<rect width="15.75" height="18.75" fill="white" transform="translate(0.25)"/>
</clipPath>
</defs>
</svg>
