<svg width="18" height="17" viewBox="0 0 18 17" fill="none" xmlns="http://www.w3.org/2000/svg">
<g clip-path="url(#clip0_557_103)">
<mask id="mask0_557_103" style="mask-type:luminance" maskUnits="userSpaceOnUse" x="0" y="0" width="18" height="17">
<path d="M17.25 0.5H0.75V16.25H17.25V0.5Z" fill="white"/>
</mask>
<g mask="url(#mask0_557_103)">
<path fill-rule="evenodd" clip-rule="evenodd" d="M14.4869 1.23828C10.6897 1.23828 6.9378 1.23828 3.14064 1.23828C1.78451 1.23828 1.10645 1.92833 1.10645 3.22217C1.10645 4.99042 1.10645 6.80179 1.10645 8.6132C1.10645 10.3814 1.10645 12.2359 1.10645 14.0473C1.10645 15.298 1.82971 15.988 3.09543 15.988C6.8926 15.988 10.6897 15.988 14.4869 15.988C15.7978 15.988 16.5211 15.298 16.5211 14.0473C16.5211 10.4245 16.5211 6.84492 16.5211 3.22217C16.5211 1.92833 15.7978 1.23828 14.4869 1.23828ZM13.2212 2.87715C14.7582 2.87715 14.7582 2.87715 14.7582 4.34349C14.7582 5.76673 14.7582 5.76672 13.2664 5.76672C11.7295 5.76672 11.7295 5.76673 11.7295 4.30037C11.7295 2.87715 11.7295 2.87715 13.2212 2.87715ZM8.79118 5.72359C10.4185 5.72359 11.7747 7.06056 11.7747 8.57008C11.7747 10.1227 10.3733 11.4165 8.74596 11.4165C7.11862 11.3734 5.76249 10.0795 5.8077 8.57008C5.8529 7.01743 7.20903 5.72359 8.79118 5.72359ZM14.7582 13.4004C14.7582 14.0905 14.5774 14.2629 13.8541 14.2629C12.1815 14.2629 10.509 14.2629 8.79118 14.2629C7.11862 14.2629 5.44606 14.2629 3.7735 14.2629C3.05023 14.2629 2.86941 14.0905 2.86941 13.4004C2.86941 11.6321 2.86941 9.82078 2.82421 8.0525C2.82421 7.53497 2.95983 7.44871 3.45707 7.44871C4.18034 7.49184 4.18034 7.49185 4.08993 8.13875C3.8187 10.4245 5.44606 12.624 7.79669 13.0554C10.2377 13.4866 12.6336 12.1066 13.3116 9.90702C13.4924 9.21695 13.5829 8.48382 13.402 7.79374C13.3568 7.53497 13.402 7.49185 13.6732 7.49185C14.7582 7.40559 14.7582 7.40559 14.7582 8.44062C14.7582 10.0364 14.7582 11.7184 14.7582 13.4004Z" fill="#242433"/>
</g>
</g>
<defs>
<clipPath id="clip0_557_103">
<rect width="16.5" height="15.75" fill="white" transform="translate(0.75 0.5)"/>
</clipPath>
</defs>
</svg>
