<svg width="18" height="19" viewBox="0 0 18 19" fill="none" xmlns="http://www.w3.org/2000/svg">
<mask id="mask0_557_116" style="mask-type:luminance" maskUnits="userSpaceOnUse" x="0" y="0" width="18" height="19">
<path d="M17.25 0.375H0V18.375H17.25V0.375Z" fill="white"/>
</mask>
<g mask="url(#mask0_557_116)">
<path fill-rule="evenodd" clip-rule="evenodd" d="M1.45083 0.744141C1.72206 0.787267 1.99329 0.91665 2.21931 1.04604C5.60963 2.85742 8.99994 4.66879 12.3902 6.48016C11.5766 7.25647 10.7629 8.0328 9.90407 8.85217C7.10137 6.13514 4.2535 3.41808 1.45083 0.744141ZM0.411133 1.73608C0.411133 6.73894 0.411133 11.7418 0.411133 16.7446C0.411133 17.0465 0.546746 17.3484 0.772766 17.5641C3.71105 14.8039 6.60413 12.0005 9.49719 9.24037C6.60413 6.43704 3.66585 3.67684 0.772766 0.873525C0.546746 1.08916 0.411133 1.43419 0.411133 1.73608ZM10.3561 9.24037C11.215 10.0598 12.0738 10.8792 12.9327 11.6986C14.0177 11.138 15.0573 10.5773 16.1423 9.9735C16.4135 9.801 16.6847 9.54225 16.6847 9.24037C16.6847 8.8953 16.4135 8.63655 16.1423 8.46405C15.0573 7.90342 14.0177 7.34272 12.9327 6.73894C12.0738 7.60147 11.215 8.42092 10.3561 9.24037ZM1.45083 17.7366C4.2535 15.0195 7.10137 12.3456 9.94922 9.6285C10.7629 10.4048 11.5766 11.1811 12.4355 12.0005C9.04517 13.8119 5.60963 15.6664 2.21931 17.4778C1.94808 17.5641 1.72206 17.6935 1.45083 17.7366Z" fill="#242433"/>
</g>
</svg>
